<svg aria-hidden="true" style="width:0;height:0;position:absolute;overflow:hidden" xmlns="http://www.w3.org/2000/svg"><defs><symbol id="heart-full" viewBox="0 0 35 32"><path fill="#fd5103" style="fill:var(--color1,#fd5103)" d="m17.684 32-2.565-2.302C6.012 21.555 0 16.186 0 9.592 0 4.219 4.28 0 9.726 0c3.077 0 6.029 1.413 7.958 3.645A10.636 10.636 0 0 1 25.638 0h.003c5.447 0 9.726 4.221 9.726 9.592 0 6.592-6.013 11.963-15.119 20.125l-2.565 2.284z"/></symbol><symbol id="heart" viewBox="0 0 34 32"><path fill="#fd5103" style="fill:var(--color1,#fd5103)" d="M24.806 2.933h.008c1.835 0 3.493.753 4.685 1.966l.001.001c1.216 1.234 1.967 2.929 1.967 4.8s-.751 3.566-1.968 4.801l.001-.001-12.433 12.589L4.634 14.502c-1.216-1.234-1.967-2.929-1.967-4.8s.751-3.566 1.968-4.801l-.001.001c1.194-1.215 2.855-1.968 4.692-1.968s3.498.753 4.691 1.967l.001.001 3.049 3.119 3.036-3.095a6.513 6.513 0 0 1 4.695-1.993h.009zm0-2.4h-.008a8.938 8.938 0 0 0-6.399 2.687l-.001.001-1.331 1.344-1.333-1.344C14.103 1.563 11.834.536 9.327.536S4.551 1.563 2.921 3.22l-.001.001C1.279 4.891.265 7.184.265 9.713s1.013 4.821 2.656 6.493l-.001-.001 14.148 14.327 14.146-14.327c1.641-1.671 2.655-3.963 2.655-6.492s-1.013-4.821-2.656-6.493l.001.001A8.959 8.959 0 0 0 24.808.533z"/></symbol><symbol id="burger-menu" viewBox="0 0 32 32"><path d="M3.429 8c0-.631.512-1.143 1.143-1.143h22.857a1.143 1.143 0 0 1 0 2.286H4.572A1.143 1.143 0 0 1 3.429 8zm0 8c0-.631.512-1.143 1.143-1.143h22.857a1.143 1.143 0 0 1 0 2.286H4.572A1.143 1.143 0 0 1 3.429 16zm1.142 6.857a1.143 1.143 0 0 0 0 2.286h22.857a1.143 1.143 0 0 0 0-2.286H4.571z"/></symbol><symbol id="search" viewBox="0 0 32 32"><path d="m29.733 31.6-9.067-9.067c-2.133 1.733-4.933 2.8-8 2.8-6.933 0-12.667-5.733-12.667-12.667S5.732-.001 12.666-.001s12.667 5.733 12.667 12.667c0 3.067-1.067 5.733-2.8 8l9.067 9.067-1.867 1.867zM12.667 2.667c-5.467 0-10 4.533-10 10s4.533 10 10 10 10-4.533 10-10-4.533-10-10-10z"/></symbol><symbol id="close-btn" viewBox="0 0 32 32"><path d="m16 14.115 6.6-6.6L24.485 9.4l-6.6 6.6 6.6 6.6-1.885 1.885-6.6-6.6-6.6 6.6L7.515 22.6l6.6-6.6-6.6-6.6L9.4 7.515l6.6 6.6z"/></symbol><symbol id="icon-bx_search" viewBox="0 0 31 32"><path fill="#fd5103" style="fill:var(--color1,#fd5103)" d="M12.8 23.68c2.272 0 4.478-.761 6.268-2.161l5.627 5.627 1.81-1.81-5.627-5.627a10.184 10.184 0 0 0 2.162-6.269c0-5.646-4.594-10.24-10.24-10.24S2.56 7.794 2.56 13.44 7.154 23.68 12.8 23.68zm0-17.92c4.236 0 7.68 3.444 7.68 7.68s-3.444 7.68-7.68 7.68-7.68-3.444-7.68-7.68 3.444-7.68 7.68-7.68z"/></symbol><symbol id="icon-burger_menu" viewBox="0 0 60 32"><path d="M2 0h56a2 2 0 1 1 0 4H2a2 2 0 1 1 0-4zM2 14h56a2 2 0 1 1 0 4H2a2 2 0 1 1 0-4zM2 28h56a2 2 0 1 1 0 4H2a2 2 0 1 1 0-4z"/></symbol><symbol id="icon-arrow-up" viewBox="0 0 32 32"><path d="m16.724 21.241 10.62-11.146a1.001 1.001 0 0 0 0-1.38l-.012-.012a.921.921 0 0 0-1.334 0l-10 10.496L6.002 8.703a.936.936 0 0 0-.667-.287.908.908 0 0 0-.667.287l-.012.012a1.001 1.001 0 0 0 0 1.38l10.62 11.146a.994.994 0 0 0 .724.31.993.993 0 0 0 .724-.31z"/></symbol><symbol id="icon-close-line" viewBox="0 0 32 32"><path d="m17.253 16 7.369-7.369a.886.886 0 0 0-.047-1.207.893.893 0 0 0-1.207-.047l-7.369 7.369L8.63 7.368A.892.892 0 0 0 7.368 8.63l7.378 7.369-7.378 7.369a.891.891 0 0 0-.249.999.881.881 0 0 0 .503.503.897.897 0 0 0 .712-.027.891.891 0 0 0 .288-.222L16 17.252l7.369 7.369a.886.886 0 0 0 1.207-.047.888.888 0 0 0 .047-1.207l-7.369-7.369z"/></symbol><symbol id="icon-authorization" viewBox="0 0 31 32"><path fill="#fd5103" style="fill:var(--color1,#fd5103)" d="M15.543.762C7.132.762.305 7.589.305 16s6.827 15.238 15.238 15.238S30.781 24.411 30.781 16 23.954.762 15.543.762zm0 6.095c2.941 0 5.333 2.392 5.333 5.333s-2.392 5.333-5.333 5.333c-2.941 0-5.333-2.392-5.333-5.333s2.392-5.333 5.333-5.333zm0 21.334c-3.093 0-6.751-1.25-9.356-4.389a15.158 15.158 0 0 1 18.712 0c-2.606 3.139-6.263 4.389-9.356 4.389z"/></symbol><symbol id="icon-arrow-left" viewBox="0 0 32 32"><path d="m14.545 16.667 6.788 6.741-1.939 1.926-8.727-8.667L19.394 8l1.939 1.926-6.788 6.741z"/></symbol><symbol id="icon-arrow-right" viewBox="0 0 32 32"><path d="m17.751 16.667-6.788-6.741L12.902 8l8.728 8.667-8.727 8.667-1.939-1.926 6.788-6.741z"/></symbol></defs></svg>