<svg width="32" height="32" viewBox="0 0 32 32" fill="none" xmlns="http://www.w3.org/2000/svg">
<g clip-path="url(#clip0_138_1078)">
<path d="M17.2533 15.9999L24.6222 8.63106C24.7679 8.46101 24.844 8.24228 24.8353 8.01857C24.8267 7.79485 24.7339 7.58264 24.5756 7.42434C24.4173 7.26603 24.2051 7.17329 23.9814 7.16465C23.7577 7.15601 23.5389 7.2321 23.3689 7.37773L16 14.7466L8.63112 7.36884C8.46374 7.20146 8.23673 7.10742 8.00001 7.10742C7.7633 7.10742 7.53628 7.20146 7.3689 7.36884C7.20152 7.53622 7.10749 7.76324 7.10749 7.99995C7.10749 8.23666 7.20152 8.46368 7.3689 8.63106L14.7467 15.9999L7.3689 23.3688C7.27585 23.4485 7.20028 23.5466 7.14692 23.6569C7.09357 23.7671 7.06359 23.8873 7.05886 24.0097C7.05413 24.1321 7.07476 24.2542 7.11945 24.3682C7.16414 24.4823 7.23192 24.5859 7.31855 24.6725C7.40517 24.7592 7.50877 24.8269 7.62284 24.8716C7.7369 24.9163 7.85898 24.9369 7.98139 24.9322C8.10381 24.9275 8.22393 24.8975 8.33421 24.8441C8.44449 24.7908 8.54255 24.7152 8.62224 24.6222L16 17.2533L23.3689 24.6222C23.5389 24.7678 23.7577 24.8439 23.9814 24.8352C24.2051 24.8266 24.4173 24.7339 24.5756 24.5756C24.7339 24.4173 24.8267 24.205 24.8353 23.9813C24.844 23.7576 24.7679 23.5389 24.6222 23.3688L17.2533 15.9999Z" fill="black"/>
</g>
<defs>
<clipPath id="clip0_138_1078">
<rect width="32" height="32" fill="white"/>
</clipPath>
</defs>
</svg>
