<svg aria-hidden="true" style="position: absolute; width: 0; height: 0; overflow: hidden;" version="1.1" xmlns="http://www.w3.org/2000/svg" xmlns:xlink="http://www.w3.org/1999/xlink">
<defs>
<symbol id="heart-full" viewBox="0 0 35 32">
<path fill="#fd5103" style="fill: var(--color1, #fd5103)" d="M17.684 32l-2.565-2.302c-9.107-8.143-15.119-13.512-15.119-20.106 0-5.373 4.28-9.592 9.726-9.592 3.077 0 6.029 1.413 7.958 3.645 1.949-2.223 4.788-3.625 7.954-3.645l0.003-0c5.447 0 9.726 4.221 9.726 9.592 0 6.592-6.013 11.963-15.119 20.125l-2.565 2.284z"></path>
</symbol>

<symbol id="heart" viewBox="0 0 35 32">
<path fill="#fd5103" style="fill: var(--color1, #fd5103)" d="M17.684 32l-2.565-2.302c-9.107-8.143-15.119-13.512-15.119-20.106 0-5.373 4.28-9.592 9.726-9.592 3.077 0 6.029 1.413 7.958 3.645 1.949-2.223 4.788-3.625 7.954-3.645l0.003-0c5.447 0 9.726 4.221 9.726 9.592 0 6.592-6.013 11.963-15.119 20.125l-2.565 2.284z"></path>
<path fill="#fcfcfc" style="fill: var(--color3, #fcfcfc)" d="M17.684 28.632l-2.075-1.817c-7.373-6.429-12.241-10.669-12.241-15.874 0-4.241 3.464-7.572 7.874-7.572 2.491 0 4.881 1.115 6.442 2.877 1.595-1.763 3.889-2.868 6.441-2.877h0.002c4.409 0 7.874 3.331 7.874 7.572 0 5.204-4.867 9.443-12.241 15.887l-2.075 1.804z"></path>
</symbol>

  <symbol id="burger-menu" viewBox="0 0 32 32">
<path d="M3.429 8c0-0.631 0.512-1.143 1.143-1.143v0h22.857c0.631 0 1.143 0.512 1.143 1.143s-0.512 1.143-1.143 1.143v0h-22.857c-0.631 0-1.143-0.512-1.143-1.143v0zM3.429 16c0-0.631 0.512-1.143 1.143-1.143v0h22.857c0.631 0 1.143 0.512 1.143 1.143s-0.512 1.143-1.143 1.143v0h-22.857c-0.631 0-1.143-0.512-1.143-1.143v0zM4.571 22.857c-0.631 0-1.143 0.512-1.143 1.143s0.512 1.143 1.143 1.143v0h22.857c0.631 0 1.143-0.512 1.143-1.143s-0.512-1.143-1.143-1.143v0h-22.857z"></path>
</symbol>
<symbol id="search" viewBox="0 0 32 32">
<path d="M29.733 31.6l-9.067-9.067c-2.133 1.733-4.933 2.8-8 2.8-6.933 0-12.667-5.733-12.667-12.667s5.733-12.667 12.667-12.667 12.667 5.733 12.667 12.667c0 3.067-1.067 5.733-2.8 8l9.067 9.067-1.867 1.867zM12.667 2.667c-5.467 0-10 4.533-10 10s4.533 10 10 10 10-4.533 10-10-4.533-10-10-10z"></path>
</symbol>
    <symbol id="close-btn" viewBox="0 0 32 32">
      <path d="m16 14.115 6.6-6.6L24.485 9.4l-6.6 6.6 6.6 6.6-1.885 1.885-6.6-6.6-6.6 6.6L7.515 22.6l6.6-6.6-6.6-6.6L9.4 7.515l6.6 6.6z"/>
    </symbol>
</defs>
</svg>
